<svg id="圖層_1" data-name="圖層 1" xmlns="http://www.w3.org/2000/svg" viewBox="0 0 191.97 197"><defs><style>.cls-1,.cls-11,.cls-9{fill:#fff;}.cls-1,.cls-10,.cls-11,.cls-12,.cls-2,.cls-3,.cls-9{stroke:#231815;}.cls-1,.cls-10,.cls-3{stroke-linejoin:round;}.cls-1,.cls-10,.cls-11,.cls-3,.cls-9{stroke-width:2px;}.cls-10,.cls-12,.cls-2,.cls-4{fill:none;}.cls-11,.cls-12,.cls-2{stroke-miterlimit:10;}.cls-2{stroke-width:3px;}.cls-3{fill:#f5a651;}.cls-5{font-size:36px;fill:#231815;font-family:JavaneseText, Javanese Text;}.cls-6{letter-spacing:0em;}.cls-7{letter-spacing:-0.05em;}.cls-8{letter-spacing:-0.03em;}.cls-9{stroke-linejoin:bevel;}</style></defs><rect class="cls-1" x="1" y="1" width="189.97" height="195.36"/><rect class="cls-2" x="8.44" y="8.17" width="176.24" height="181.24"/><polygon class="cls-3" points="142.5 60.71 56.44 60.19 114.66 31.23 130.04 47.2 142.5 60.71"/><path class="cls-4" d="M277,489.1c-.22-4.32,2.77-8.07,5.6-11.36a4.08,4.08,0,0,1,2.67-1.78c1.25,0,2.2,1,3.15,1.83a9.74,9.74,0,0,0,4.12,2.07,6.76,6.76,0,0,0,3,.06c2-.47,3.59-2.09,5.6-2.1" transform="translate(-201.65 -322.26)"/><path class="cls-4" d="M246,477.54l2-.8" transform="translate(-201.65 -322.26)"/><text class="cls-5" transform="translate(39.09 177.69)">SWE<tspan class="cls-6" x="80.46" y="0">E</tspan><tspan x="104.34" y="0">T</tspan></text><text class="cls-5" transform="translate(52.82 140.61)">Har<tspan class="cls-7" x="58.82" y="0">n</tspan><tspan class="cls-8" x="77.06" y="0">’</tspan><tspan x="86.15" y="0">s</tspan></text><path class="cls-9" d="M292.47,364.16a5.92,5.92,0,1,1-10.58,5.32" transform="translate(-201.65 -322.26)"/><path class="cls-10" d="M342.93,384a17.49,17.49,0,0,0,5.88-2.48,2.79,2.79,0,0,0,1.17-1,2.63,2.63,0,0,0,.21-1.31,4.86,4.86,0,0,0-.83-3.18,3.43,3.43,0,0,0-3-1,9,9,0,0,0-3.07,1.06c.6-.83,1.57-1.34,2.19-2.15a4.21,4.21,0,0,0,.54-3.79,6.9,6.9,0,0,0-2.31-3.18,3.23,3.23,0,0,0-1.36-.76,3.94,3.94,0,0,0-1.86.17l-4.77,1.2a13.08,13.08,0,0,0,3-1.58,4.39,4.39,0,0,0,1.75-2.8,6.65,6.65,0,0,0-.46-2.74,5.33,5.33,0,0,0-1.56-2.75,5.61,5.61,0,0,0-1.2-.6,12.78,12.78,0,0,0-5.77-1.19c-2,.19-4,1.46-4.4,3.4a6.75,6.75,0,0,0,.46-8.54,2.51,2.51,0,0,0-1-.83,2.88,2.88,0,0,0-1-.18,13.85,13.85,0,0,0-9.64,3.3c-.3.26-.1.61,0,1" transform="translate(-201.65 -322.26)"/><rect class="cls-11" x="56.44" y="60.19" width="86.06" height="39.18"/><line class="cls-12" x1="74.07" y1="71.86" x2="99.56" y2="80"/><line class="cls-12" x1="99.31" y1="79.92" x2="125.1" y2="73.22"/><path class="cls-12" d="M275.72,394.13c0,15.2,11.36,27.51,25.4,27.51" transform="translate(-201.65 -322.26)"/><path class="cls-12" d="M326.91,395.77a25.82,25.82,0,0,1-25.79,25.87" transform="translate(-201.65 -322.26)"/><rect class="cls-12" x="91.25" y="81.92" width="4.93" height="4.93" rx="2.46"/><rect class="cls-12" x="102.81" y="81.92" width="4.93" height="4.93" rx="2.46"/><path class="cls-12" d="M295.89,414.25a5.9,5.9,0,0,0,5.75,6" transform="translate(-201.65 -322.26)"/><path class="cls-12" d="M301.55,420.27a5.89,5.89,0,0,0,6-5.76" transform="translate(-201.65 -322.26)"/><path class="cls-12" d="M275.72,394.13c0,6.92-7.88,12.52-17.63,12.52" transform="translate(-201.65 -322.26)"/><path class="cls-12" d="M326.91,395.77c0,6,7.71,10.88,17.24,10.88" transform="translate(-201.65 -322.26)"/></svg>