<svg id="圖層_1" data-name="圖層 1" xmlns="http://www.w3.org/2000/svg" viewBox="0 0 247 137.96"><defs><style>.cls-1{fill:none;stroke:#000;stroke-miterlimit:10;}.cls-2{fill:#fff;}.cls-3{font-size:36px;font-family:Verdana;}.cls-4{letter-spacing:-0.02em;}</style></defs><ellipse class="cls-1" cx="123.5" cy="114.96" rx="123" ry="22.5"/><rect class="cls-2" x="32.5" y="60.46" width="174" height="64" rx="10.38"/><path d="M512.12,352a9.89,9.89,0,0,1,9.88,9.88v43.24a9.89,9.89,0,0,1-9.88,9.88H358.88a9.89,9.89,0,0,1-9.88-9.88V361.88a9.89,9.89,0,0,1,9.88-9.88H512.12m0-1H358.88A10.92,10.92,0,0,0,348,361.88v43.24A10.92,10.92,0,0,0,358.88,416H512.12A10.92,10.92,0,0,0,523,405.12V361.88A10.92,10.92,0,0,0,512.12,351Z" transform="translate(-316 -291.04)"/><text class="cls-3" transform="translate(82.33 104.85)"><tspan class="cls-4">T</tspan><tspan x="21.3" y="0">OP</tspan></text><line class="cls-1" x1="35.5" y1="63.46" x2="180.5" y2="0.46"/><line class="cls-1" x1="180.5" y1="0.46" x2="203.5" y2="64.46"/><line class="cls-1" x1="35" y1="82.96" x2="74" y2="82.96"/><line class="cls-1" x1="52.5" y1="112.46" x2="188.5" y2="112.46"/><line class="cls-1" x1="229.5" y1="104.46" x2="228.5" y2="104.46"/><line class="cls-1" x1="164.5" y1="74.46" x2="198.5" y2="74.46"/><line class="cls-1" x1="165.5" y1="95.46" x2="201.5" y2="95.46"/></svg>